<svg width="133" height="107" viewBox="0 0 133 107" fill="none" xmlns="http://www.w3.org/2000/svg">
<g clip-path="url(#clip0_295_119)">
<path d="M75.4669 94.4891C74.5509 93.2064 73.3109 92.2679 71.752 91.9166C70.3926 91.6103 68.9948 91.6625 67.613 91.6732L50.1404 91.8079C48.644 91.8194 47.2093 93.1159 47.2788 94.6695C47.3478 96.2101 48.5364 97.5435 50.1404 97.5312C55.2587 97.4917 60.3769 97.4522 65.4951 97.4128C66.7018 97.4035 67.9091 97.3817 69.1158 97.3857C69.3868 97.3865 69.6567 97.4008 69.9274 97.4039C69.993 97.4046 70.0403 97.4041 70.0738 97.4026C70.0821 97.4052 70.0892 97.4075 70.1001 97.4105C70.2413 97.4493 70.3862 97.476 70.5283 97.5129C70.4785 97.5143 70.6204 97.6029 70.6917 97.6329C70.7015 97.6522 70.7223 97.6864 70.7572 97.7393C70.8058 97.8305 70.9498 98.1075 70.9558 98.0988C71.1721 98.6459 71.3506 99.2072 71.49 99.7787C71.8225 101.039 71.8956 101.303 71.9435 102.485C72.004 103.979 73.2164 105.418 74.8051 105.347C76.3037 105.28 77.7317 104.087 77.6668 102.485C77.5574 99.7855 77.0836 96.753 75.4669 94.4891Z" fill="#E6E6E6"/>
<path d="M51.1673 100.947C50.8391 98.9578 50.5172 96.9678 50.1827 94.9802C49.8432 92.9638 49.1499 91.1173 47.5808 89.7939C47.1615 89.4403 46.7268 89.1102 46.2902 88.7811C46.1367 88.6654 45.9834 88.5496 45.8317 88.4313C45.8226 88.4243 45.8169 88.4198 45.809 88.4137C45.7923 88.3994 45.7723 88.3823 45.7454 88.3596C45.0914 87.806 44.4595 87.2279 43.8575 86.6134C43.323 86.0676 42.8118 85.4986 42.3239 84.9062C42.202 84.7583 42.0816 84.609 41.9629 84.4585C41.9424 84.4326 41.8324 84.2903 41.7599 84.1975C41.6925 84.1047 41.5693 83.937 41.5486 83.9077C41.4098 83.7114 41.2735 83.5134 41.1397 83.3135C40.2283 81.948 39.439 80.5047 38.7812 79.0004C38.7159 78.8512 38.6522 78.7012 38.5901 78.5502C38.5734 78.5042 38.5518 78.445 38.5232 78.3662C38.3906 78.0017 38.2583 77.6376 38.1371 77.2687C37.8796 76.4852 37.6582 75.6901 37.4729 74.8835C37.3813 74.4852 37.2988 74.0848 37.2255 73.6825C37.1877 73.4756 37.1523 73.2682 37.1194 73.0605C37.114 73.026 37.0818 72.8018 37.0629 72.6752C37.0489 72.5479 37.0229 72.3225 37.0194 72.2877C36.9984 72.0783 36.9798 71.8687 36.9636 71.6588C36.927 71.1866 36.9022 70.7137 36.8893 70.2399C36.8673 69.398 36.8824 68.556 36.9346 67.7142C36.9643 67.2412 37.0065 66.7694 37.0586 66.2985C37.0617 66.2696 37.0642 66.2466 37.0665 66.2259C37.0696 66.2048 37.0733 66.1809 37.0776 66.1512C37.1161 65.891 37.1567 65.6311 37.202 65.3721C37.3736 64.3884 37.5969 63.4145 37.8708 62.4543C38.0005 62.0002 38.1413 61.5498 38.2934 61.103C38.3611 60.9047 38.4311 60.7072 38.5031 60.5104C38.4984 60.5231 38.7146 59.971 38.7174 59.9525C39.575 57.9262 40.9777 56.079 40.9796 53.7773C40.981 52.2189 39.6625 50.7261 38.118 50.7981C37.3479 50.8271 36.6192 51.1539 36.0854 51.7097C35.5516 52.2654 35.2543 53.0067 35.2564 53.7773C35.2564 53.8123 35.2562 53.8422 35.2561 53.8711C35.2417 53.9197 35.2296 53.9601 35.2188 53.9959C35.0516 54.3594 34.8467 54.7047 34.6631 55.0591C34.1605 56.0291 33.7314 57.0309 33.3238 58.0474C32.6566 59.7028 32.1459 61.4171 31.7983 63.1677C31.043 67.0034 30.9843 70.9438 31.6253 74.8003C32.7348 81.5632 36.3937 88.037 41.4806 92.3885C41.922 92.7661 42.3742 93.1311 42.8307 93.4886C43.0196 93.6366 43.21 93.7818 43.4015 93.926C43.492 93.9943 43.8668 94.2898 43.7019 94.1466C44.0565 94.4492 44.2057 94.6015 44.2968 94.8244C44.31 94.8758 44.328 94.9456 44.3523 95.0409C44.4165 95.2923 44.4775 95.5431 44.5281 95.798C44.9709 98.0249 45.2786 100.289 45.6485 102.531C45.9027 104.071 47.7987 105.073 49.1687 104.611C50.7633 104.074 51.4397 102.597 51.1673 100.947Z" fill="#E6E6E6"/>
<path d="M75.7561 106.723C74.5542 106.726 73.4003 106.252 72.5473 105.405C71.6943 104.559 71.2119 103.408 71.2061 102.207V98.9423C67.7884 99.3249 56.0853 99.2363 52.7306 98.6973V102.076C52.7216 103.277 52.2383 104.426 51.386 105.271C50.5336 106.117 49.3815 106.592 48.1806 106.592C46.9797 106.592 45.8275 106.117 44.9752 105.271C44.1229 104.426 43.6395 103.277 43.6305 102.076V95.4421C39.0869 92.918 35.2992 89.2271 32.6582 84.7504C30.0172 80.2737 28.6187 75.1733 28.6069 69.9757C28.6069 61.0634 32.646 52.7496 39.6884 47.1659C44.2673 43.5232 49.8307 41.3325 55.664 40.8751C56.4557 40.813 57.2523 40.7816 58.0317 40.7816C60.7775 40.7816 73.166 41.2057 76.2743 42.1L83.3619 35.0672C83.4661 34.9624 83.5991 34.891 83.744 34.8621C83.889 34.8332 84.0392 34.8482 84.1756 34.905C84.3131 34.9597 84.4308 35.0547 84.5133 35.1774C84.5958 35.3002 84.6392 35.4451 84.6379 35.593V36.7112L86.018 35.3444C86.122 35.2395 86.2549 35.168 86.3997 35.1391C86.5446 35.1101 86.6948 35.1251 86.8311 35.182C86.9687 35.2366 87.0865 35.3316 87.1691 35.4544C87.2517 35.5772 87.2952 35.7222 87.2939 35.8702V48.3657C90.8503 51.5719 93.5609 55.6058 95.1855 60.1101C96.8101 64.6144 97.2985 69.4499 96.6074 74.188C95.9163 78.9262 94.067 83.4207 91.2235 87.2733C88.38 91.1258 84.6301 94.2175 80.306 96.2742V102.207C80.3002 103.408 79.8178 104.559 78.9648 105.405C78.1118 106.252 76.9579 106.726 75.7561 106.723ZM71.5637 98.5367V102.207C71.5728 103.313 72.0184 104.37 72.8037 105.149C73.5889 105.928 74.6501 106.365 75.756 106.365C76.862 106.365 77.9232 105.928 78.7084 105.149C79.4937 104.37 79.9393 103.313 79.9483 102.207V96.0483L80.0505 95.9998C84.9023 93.6975 89.0211 90.0956 91.9497 85.5939C95.6814 79.8494 97.2333 72.9588 96.3246 66.1692C95.4159 59.3796 92.1066 53.1396 86.9956 48.5786L86.9361 48.5252V35.8702C86.9374 35.7933 86.9151 35.7179 86.8722 35.654C86.8293 35.5902 86.7679 35.5411 86.6962 35.5133C86.6249 35.4828 86.5461 35.4746 86.4701 35.4897C86.3941 35.5048 86.3245 35.5425 86.2703 35.5979L84.2802 37.5689V35.593C84.2814 35.5161 84.2591 35.4407 84.2162 35.3769C84.1733 35.313 84.1119 35.2639 84.0402 35.2361C83.9688 35.2057 83.8898 35.1975 83.8137 35.2127C83.7376 35.2279 83.6678 35.2658 83.6136 35.3213L76.3743 42.5047L76.2714 42.4725C73.3819 41.5681 60.7984 41.1393 58.0317 41.1393C57.2616 41.1393 56.4744 41.1704 55.6921 41.2317C49.9297 41.6835 44.4339 43.8476 39.9107 47.4462C32.9543 52.9616 28.9646 61.1733 28.9646 69.9757C28.9765 75.1273 30.3676 80.1818 32.9933 84.6141C35.619 89.0465 39.3836 92.6949 43.896 95.1804L43.9882 95.2315V102.076C43.9975 103.182 44.4432 104.239 45.2284 105.018C46.0136 105.797 47.0747 106.234 48.1806 106.234C49.2864 106.234 50.3475 105.797 51.1327 105.018C51.9179 104.239 52.3637 103.182 52.3729 102.076V98.2691L52.5848 98.3089C55.5995 98.8761 68.2938 98.9656 71.3616 98.5632L71.5637 98.5367Z" fill="#3F3D56"/>
<path d="M51.5093 21.3045L31.7032 27.2567C31.0732 27.4468 30.5445 27.8791 30.2331 28.4588C29.9217 29.0385 29.8532 29.7181 30.0425 30.3483C30.2319 30.9784 30.6637 31.5077 31.243 31.8197C31.8224 32.1317 32.5019 32.201 33.1322 32.0124L50.4648 26.8024L50.8279 26.6933C50.9014 24.8222 51.409 22.9939 52.3106 21.3528C52.1974 21.3019 52.0765 21.2704 51.9529 21.2598C51.8035 21.2453 51.6528 21.2605 51.5093 21.3045Z" fill="#FFC600"/>
<path d="M32.7896 33.2814C32.5267 33.2808 32.2706 33.1975 32.0576 33.0434C31.8445 32.8893 31.6853 32.6722 31.6024 32.4227L30.3639 28.6854C30.3121 28.5293 30.2917 28.3646 30.3036 28.2006C30.3155 28.0366 30.3597 27.8766 30.4335 27.7297C30.5073 27.5827 30.6093 27.4518 30.7337 27.3443C30.8581 27.2368 31.0025 27.1548 31.1586 27.1031L47.2787 21.7608C47.4348 21.7091 47.5995 21.6886 47.7635 21.7005C47.9275 21.7124 48.0875 21.7565 48.2344 21.8303C48.3813 21.9041 48.5123 22.0061 48.6198 22.1305C48.7273 22.2548 48.8093 22.3992 48.861 22.5552L50.0995 26.2925C50.2026 26.5999 50.1819 26.9354 50.0419 27.2278C49.9019 27.5202 49.6536 27.7466 49.3496 27.8592C49.3347 27.8647 49.3196 27.87 49.3045 27.875L33.1846 33.2171C33.0572 33.2596 32.9239 33.2813 32.7896 33.2814Z" fill="#2F2E41"/>
<path d="M62.9791 14.6672C59.7256 14.6685 56.6003 15.9357 54.2646 18.2006C51.9289 20.4655 50.5661 23.5504 50.4648 26.8024C50.4612 26.9294 50.4595 27.0581 50.4595 27.1869C50.4595 29.6631 51.1937 32.0836 52.5694 34.1425C53.9451 36.2013 55.9004 37.806 58.1881 38.7536C60.4757 39.7012 62.993 39.9491 65.4216 39.466C67.8502 38.983 70.081 37.7906 71.8319 36.0397C73.5828 34.2888 74.7752 32.058 75.2583 29.6294C75.7413 27.2008 75.4934 24.6835 74.5458 22.3958C73.5982 20.1082 71.9936 18.1529 69.9347 16.7772C67.8759 15.4015 65.4553 14.6672 62.9791 14.6672ZM62.9791 39.3489C59.7546 39.3455 56.6631 38.0631 54.383 35.783C52.103 33.5029 50.8205 30.4114 50.8172 27.1869C50.8172 27.0206 50.8208 26.856 50.8279 26.6933C50.9248 24.3109 51.7198 22.0096 53.1141 20.0755C54.5083 18.1413 56.4404 16.6597 58.67 15.8148C60.8996 14.9699 63.3284 14.799 65.6543 15.3235C67.9803 15.8479 70.1007 17.0444 71.7521 18.7643C73.4034 20.4842 74.5128 22.6516 74.9422 24.9969C75.3717 27.3422 75.1022 29.762 74.1674 31.9554C73.2326 34.1489 71.6737 36.0191 69.6844 37.3336C67.6952 38.6482 65.3635 39.349 62.9791 39.3489Z" fill="#3F3D56"/>
<path d="M73.5309 27.187C73.5309 29.9856 72.4191 32.6696 70.4402 34.6486C68.4612 36.6275 65.7772 37.7393 62.9786 37.7393C60.1799 37.7393 57.4959 36.6275 55.517 34.6486C53.538 32.6696 52.4263 29.9856 52.4263 27.187C52.4263 26.8525 52.4423 26.5234 52.4727 26.1979C52.727 23.4969 54.0118 20.9976 56.0603 19.219C58.1089 17.4404 60.7637 16.5191 63.4736 16.6463C66.1836 16.7736 68.7404 17.9397 70.6132 19.9025C72.486 21.8653 73.5309 24.474 73.5309 27.187Z" fill="#E6E6E6"/>
<path d="M66.1212 27.8881C65.8654 27.5518 65.5289 27.2854 65.1429 27.1136C64.6667 26.913 64.1751 26.7515 63.6727 26.6307V23.7584C64.4449 23.8748 65.1691 24.205 65.7634 24.7116L66.3466 23.4686C66.0112 23.1699 65.6262 22.932 65.209 22.7657C64.7466 22.5785 64.2611 22.454 63.7657 22.3955V20.9396H62.4154V22.4098C61.894 22.4684 61.391 22.6373 60.9398 22.9052C60.5323 23.1464 60.1893 23.4827 59.94 23.8853C59.7021 24.2783 59.5789 24.7299 59.5841 25.1892C59.5609 25.6869 59.7051 26.1781 59.9937 26.5842C60.2593 26.9359 60.6102 27.2141 61.0131 27.3926C61.4968 27.5992 61.997 27.7649 62.5084 27.8881V30.6406C61.5971 30.5719 60.7288 30.2254 60.0205 29.648L59.4375 30.8928C59.8335 31.2202 60.2839 31.4756 60.7682 31.6475C61.2988 31.8374 61.8531 31.953 62.4154 31.9909V33.4343H63.7657V31.9641C64.5157 31.8821 65.2191 31.5596 65.7706 31.0448C66.0135 30.8119 66.2054 30.531 66.3341 30.2201C66.4628 29.9091 66.5255 29.5748 66.5183 29.2384C66.5407 28.7565 66.4009 28.2811 66.1212 27.8881ZM62.5084 26.3267C62.1794 26.2269 61.8736 26.0628 61.6087 25.8438C61.5038 25.7504 61.4208 25.6349 61.3657 25.5057C61.3107 25.3764 61.285 25.2366 61.2904 25.0962C61.2806 24.7776 61.3977 24.4682 61.6159 24.2359C61.8578 23.9922 62.1698 23.8302 62.5084 23.7727V26.3267ZM64.5205 30.1327C64.2923 30.3667 63.9952 30.5215 63.6727 30.5744V28.2064C63.981 28.2891 64.2693 28.4333 64.5205 28.6303C64.6157 28.7116 64.6913 28.8133 64.7418 28.9279C64.7922 29.0425 64.8162 29.1669 64.812 29.2921C64.8244 29.599 64.7203 29.8993 64.5205 30.1327Z" fill="#FFC600"/>
<path d="M33.3648 48.4282C33.0883 48.4277 32.8197 48.3361 32.6006 48.1674C32.3815 47.9987 32.2242 47.7625 32.153 47.4953L31.4787 44.9431C31.3943 44.6223 31.4406 44.2811 31.6074 43.9944C31.7742 43.7077 32.048 43.4989 32.3685 43.4137L53.6414 37.7924C53.9624 37.7087 54.3035 37.7554 54.5901 37.9225C54.8767 38.0896 55.0855 38.3634 55.1707 38.6841L55.742 40.8464L55.635 40.8547C50.1791 41.2789 44.959 43.257 40.5921 46.5549L40.5611 46.5699L33.6824 48.387C33.5787 48.4143 33.472 48.4282 33.3648 48.4282Z" fill="#2F2E41"/>
<path d="M29.8413 61.0349C27.3459 60.6662 24.9593 59.7638 22.8442 58.3893C21.7963 57.7088 20.8263 56.9154 19.9514 56.0233C19.088 55.1426 18.2619 54.1416 17.8342 52.9687C17.4227 51.8835 17.4439 50.6817 17.8934 49.6117C18.3368 48.5483 19.1838 47.7041 20.2487 47.2642C21.32 46.837 22.6143 46.7913 23.6568 47.2592C24.1536 47.4769 24.5835 47.823 24.9024 48.2618C25.0506 48.4641 25.1604 48.6919 25.2262 48.9339C25.2872 49.1532 25.2928 49.3843 25.2423 49.6063C25.1812 49.8279 25.0734 50.0339 24.9261 50.2104C24.7789 50.3869 24.5956 50.5299 24.3885 50.6298C23.9328 50.8636 23.4391 51.0142 22.9305 51.0745C22.419 51.1443 21.6841 51.2077 21.2729 50.7971C21.1882 50.7159 21.1217 50.6177 21.0775 50.509C21.0466 50.4258 21.036 50.3364 21.0467 50.2482C21.0407 50.2871 21.0715 50.1638 21.0697 50.1687C21.0632 50.1869 21.035 50.2313 21.0751 50.1631C21.0876 50.1406 21.1015 50.1189 21.1168 50.0981C21.1032 50.1157 21.0733 50.1451 21.1266 50.0947C21.1707 50.0465 21.2273 50.0116 21.2902 49.9938C21.3149 49.9866 21.34 49.9808 21.3648 49.9741C21.4279 49.9568 21.302 49.975 21.3665 49.9729C21.3914 49.9721 21.4166 49.9727 21.4414 49.9716C21.5048 49.9688 21.379 49.9544 21.4397 49.9696C21.4632 49.9755 21.4866 49.9813 21.5098 49.9886C21.5602 50.0045 21.474 49.9516 21.5082 49.9912C21.5483 50.0376 21.4662 49.9461 21.5117 49.991C21.5344 50.0133 21.5557 50.0368 21.5757 50.0615C21.6546 50.1395 21.7611 50.1832 21.8721 50.1832C21.9831 50.1832 22.0896 50.1395 22.1686 50.0615C22.2449 49.9817 22.2874 49.8755 22.2874 49.7651C22.2874 49.6547 22.2449 49.5485 22.1686 49.4686C21.7552 48.9562 20.9386 49.0828 20.5204 49.5159C19.9871 50.0683 20.1983 50.9437 20.717 51.4257C21.3043 51.9713 22.1361 52.0093 22.8916 51.9177C23.5301 51.8566 24.1522 51.6808 24.7283 51.3987C25.3006 51.1175 25.7483 50.6339 25.9845 50.0416C26.0912 49.7254 26.1295 49.3903 26.0969 49.0582C26.0644 48.7262 25.9616 48.4049 25.7956 48.1155C25.1286 46.8615 23.7475 46.2186 22.3823 46.1073C21.6794 46.0522 20.9727 46.1371 20.3028 46.357C19.633 46.5769 19.0134 46.9274 18.48 47.3884C17.4517 48.314 16.8186 49.5995 16.7114 50.9788C16.5923 52.4089 17.1471 53.7978 17.9561 54.9519C18.803 56.1246 19.8136 57.1698 20.9571 58.0556C23.1927 59.8404 25.815 61.0771 28.6142 61.6668C28.9471 61.7355 29.2819 61.7944 29.6184 61.8434C29.7255 61.8693 29.8384 61.8535 29.9342 61.7991C30.03 61.7447 30.1015 61.6558 30.1341 61.5506C30.1628 61.4434 30.1482 61.3292 30.0934 61.2327C30.0386 61.1362 29.9481 61.0651 29.8413 61.0349L29.8413 61.0349Z" fill="#3F3D56"/>
<path d="M69.794 42.814C66.1379 42.7624 62.4933 42.8552 58.8602 43.0924C57.6184 43.1734 56.5439 43.6124 56.5439 44.3501C56.5439 44.9668 57.6098 45.6894 58.8602 45.6077C62.4914 45.3706 66.136 45.2778 69.794 45.3294C72.7762 45.3715 72.7744 42.8561 69.794 42.814Z" fill="#CCCCCC"/>
<path d="M64.3903 45.2048C63.9952 45.2048 54.7134 45.1901 54.7134 43.908C54.7134 42.626 63.9952 42.6112 64.3903 42.6112C64.7854 42.6112 74.0673 42.626 74.0673 43.908C74.0673 45.1901 64.7854 45.2048 64.3903 45.2048ZM55.0763 43.908C55.3303 44.2967 58.7421 44.8471 64.3903 44.8471C70.0385 44.8471 73.4503 44.2967 73.7043 43.908C73.4503 43.5194 70.0385 42.9689 64.3903 42.9689C58.7421 42.9689 55.3303 43.5194 55.0763 43.908V43.908Z" fill="#3F3D56"/>
<path d="M93.8393 78.9097C95.894 78.8526 98.4512 78.7813 100.421 77.3422C101.008 76.8961 101.49 76.3271 101.833 75.6751C102.177 75.0231 102.374 74.3039 102.41 73.5678C102.45 72.4313 102.04 71.4392 101.254 70.7752C100.225 69.9057 98.7224 69.7018 97.1032 70.1776L98.7808 57.9176L97.5493 57.7489L95.5771 72.1621L96.6055 71.6902C97.7978 71.1433 99.4345 70.865 100.452 71.7245C100.701 71.9491 100.896 72.2284 101.02 72.5405C101.144 72.8527 101.195 73.1892 101.168 73.5241C101.138 74.0719 100.99 74.6068 100.735 75.0925C100.479 75.5781 100.122 76.003 99.688 76.3383C98.1549 77.4581 96.1165 77.6026 93.8047 77.6672L93.8393 78.9097Z" fill="#3F3D56"/>
<path d="M90.4341 58.975H83.7393V60.218H90.4341V58.975Z" fill="#3F3D56"/>
<path d="M36.3942 54.1454C36.0962 54.1444 35.8083 54.0374 35.582 53.8434C35.3557 53.6495 35.2059 53.3813 35.1594 53.087L34.7508 50.4791C34.6997 50.1511 34.7809 49.8162 34.9764 49.548C35.172 49.2798 35.466 49.1001 35.7938 49.0483L57.5301 45.6425C57.858 45.5915 58.1929 45.6727 58.4611 45.8682C58.7293 46.0638 58.909 46.3577 58.9607 46.6856L59.3693 49.2936C59.4204 49.6216 59.3392 49.9565 59.1437 50.2247C58.9481 50.4929 58.6542 50.6726 58.3263 50.7244L36.5901 54.1301C36.5253 54.1402 36.4598 54.1453 36.3942 54.1454Z" fill="#2F2E41"/>
<path d="M27.3983 23.5826C32.436 23.5826 36.5198 19.4987 36.5198 14.4611C36.5198 9.42342 32.436 5.3396 27.3983 5.3396C22.3607 5.3396 18.2769 9.42342 18.2769 14.4611C18.2769 19.4987 22.3607 23.5826 27.3983 23.5826Z" fill="#FFC600"/>
<path d="M32.5627 16.8212C32.8542 16.7192 33.1205 16.556 33.3437 16.3426C33.4914 16.1904 33.604 16.0077 33.6736 15.8074C33.7433 15.6071 33.7683 15.394 33.747 15.1831C33.7346 15.0327 33.6876 14.8872 33.6096 14.758C33.5317 14.6288 33.4249 14.5194 33.2977 14.4383C32.9676 14.2353 32.5314 14.243 32.091 14.4471L32.0402 10.8865L31.6825 10.8916L31.7422 15.0775L32.0145 14.8989C32.3302 14.6921 32.7839 14.5422 33.1103 14.743C33.191 14.7961 33.2584 14.8672 33.3072 14.9506C33.356 15.0341 33.3848 15.1276 33.3916 15.224C33.4066 15.3812 33.3876 15.5398 33.3359 15.689C33.2842 15.8381 33.2009 15.9744 33.0918 16.0885C32.704 16.4733 32.1301 16.6022 31.4751 16.7201L31.5385 17.0721C31.8867 17.0192 32.2295 16.9353 32.5627 16.8212Z" fill="#2F2E41"/>
<path d="M35.7237 10.6366L33.8188 10.9251L33.8724 11.2787L35.7772 10.9903L35.7237 10.6366Z" fill="#2F2E41"/>
<path d="M29.711 11.547L27.8062 11.8354L27.8597 12.1891L29.7645 11.9006L29.711 11.547Z" fill="#2F2E41"/>
<path d="M33.426 53.9859C33.098 53.9852 32.778 53.8846 32.5085 53.6976C32.239 53.5105 32.0329 53.2458 31.9175 52.9387L25.6285 36.0964C24.8598 34.0308 24.9419 31.7446 25.8568 29.7394C26.7716 27.7343 28.4445 26.1739 30.5084 25.4006L35.6221 23.4911C35.8198 23.4168 36.0303 23.3823 36.2414 23.3896C36.4525 23.397 36.6601 23.446 36.8522 23.5338C37.0438 23.6195 37.2165 23.7424 37.3601 23.8955C37.5037 24.0486 37.6153 24.2288 37.6884 24.4256L49.3382 46.4215C49.4139 46.6199 49.4495 46.8312 49.4432 47.0434C49.4368 47.2556 49.3886 47.4644 49.3012 47.6579C49.2138 47.8513 49.089 48.0256 48.934 48.1707C48.7791 48.3157 48.5969 48.4287 48.3981 48.5031L33.9886 53.8837C33.8087 53.9511 33.6182 53.9858 33.426 53.9859Z" fill="#2F2E41"/>
<path d="M34.0708 24.0704L45.6299 39.5278L37.8084 24.2326C37.7438 24.0542 37.6446 23.8902 37.5166 23.75C37.3887 23.6099 37.2343 23.4963 37.0624 23.4158C36.8905 23.3354 36.7045 23.2895 36.5149 23.281C36.3253 23.2724 36.1359 23.3013 35.9574 23.3659L34.0708 24.0704Z" fill="#E6E6E6"/>
<path d="M52.3732 35.8094L31.7344 34.48C31.4091 34.459 31.0911 34.3742 30.7986 34.2304C30.506 34.0865 30.2447 33.8865 30.0295 33.6416C29.8143 33.3968 29.6494 33.1119 29.5443 32.8033C29.4391 32.4948 29.3958 32.1685 29.4168 31.8432C29.4377 31.5179 29.5225 31.1999 29.6664 30.9073C29.8102 30.6148 30.0103 30.3535 30.2551 30.1383C30.5 29.923 30.7848 29.7582 31.0934 29.653C31.402 29.5479 31.7282 29.5046 32.0536 29.5255L52.6923 30.8549C52.8446 30.8647 52.9936 30.9044 53.1306 30.9717C53.2676 31.0391 53.39 31.1328 53.4908 31.2474C53.5916 31.3621 53.6688 31.4955 53.718 31.64C53.7672 31.7845 53.7875 31.9373 53.7777 32.0897L53.6081 34.724C53.5882 35.0317 53.447 35.3189 53.2154 35.5225C52.9838 35.726 52.6809 35.8292 52.3732 35.8094Z" fill="#FFC600"/>
<path d="M46.8581 36.6617C46.8309 36.6617 46.8035 36.6608 46.7761 36.659H46.7761L29.8287 35.5674C29.6647 35.5569 29.5043 35.5141 29.3567 35.4415C29.2092 35.369 29.0774 35.2681 28.9688 35.1446C28.8603 35.0212 28.7771 34.8775 28.7241 34.7219C28.6711 34.5662 28.6492 34.4017 28.6598 34.2376L28.9496 29.738C28.9602 29.5739 29.003 29.4136 29.0755 29.266C29.1481 29.1185 29.249 28.9867 29.3725 28.8781C29.496 28.7696 29.6397 28.6865 29.7953 28.6334C29.9509 28.5804 30.1155 28.5586 30.2796 28.5692L47.2269 29.6607C47.5581 29.6824 47.8672 29.8346 48.0863 30.0839C48.3054 30.3332 48.4167 30.6593 48.3958 30.9905L48.106 35.4902C48.09 35.7313 48.0048 35.9627 47.8606 36.1565C47.7164 36.3504 47.5193 36.4985 47.2929 36.5831C47.1539 36.6352 47.0066 36.6618 46.8581 36.6617Z" fill="#2F2E41"/>
<path d="M27.2939 8.39542C28.4939 7.36339 30.1417 8.28661 31.5178 8.125C32.8344 7.97037 33.874 6.78941 34.1395 5.53479C34.4494 4.07106 33.6896 2.60461 32.5698 1.69201C31.3433 0.692474 29.7167 0.405532 28.1753 0.590453C26.4087 0.802394 24.793 1.62589 23.3433 2.62196C21.9439 3.55362 20.6571 4.64407 19.5084 5.87156C18.4798 7.00757 17.6083 8.36167 17.33 9.89033C17.0771 11.2796 17.2702 12.819 18.0915 13.9959C18.527 14.5991 19.1105 15.0799 19.7859 15.3919C20.4902 15.7377 21.2414 15.9849 21.9236 16.3759C22.9552 16.9671 23.9578 18.1928 23.6347 19.4684C23.5654 19.7471 23.4287 20.0044 23.2365 20.2178C23.0057 20.4741 22.5893 20.1355 22.8208 19.8785C23.2273 19.4273 23.2113 18.8255 22.9946 18.2867C22.737 17.6796 22.2809 17.178 21.7009 16.8641C20.9867 16.4557 20.1983 16.2037 19.4663 15.8318C18.7657 15.4921 18.1576 14.9881 17.6936 14.3627C16.8176 13.1453 16.5555 11.5609 16.7542 10.0951C16.9692 8.50899 17.7842 7.06766 18.8058 5.85982C19.9175 4.54535 21.2832 3.43269 22.6784 2.43312C24.1754 1.36057 25.8293 0.453801 27.6594 0.125837C29.2459 -0.158456 30.9655 0.0165726 32.3527 0.881119C33.6477 1.68812 34.6407 3.07631 34.7394 4.62749C34.7749 5.33327 34.6216 6.03575 34.2955 6.66263C33.9693 7.28952 33.4819 7.81817 32.8836 8.19418C32.2697 8.56157 31.5559 8.72694 30.8429 8.66694C30.0807 8.61815 29.3178 8.38475 28.5507 8.44955C28.2036 8.47062 27.8728 8.60427 27.6085 8.83024C27.3463 9.05573 27.0339 8.61907 27.2939 8.39543V8.39542Z" fill="#2F2E41"/>
<path d="M132.259 106.806H0.212829C0.156456 106.806 0.10245 106.784 0.0626456 106.744C0.0228417 106.704 0.000488281 106.65 0.000488281 106.593C0.000488281 106.537 0.0228417 106.483 0.0626456 106.443C0.10245 106.403 0.156456 106.381 0.212829 106.38H132.259C132.315 106.38 132.369 106.403 132.409 106.443C132.449 106.483 132.472 106.537 132.472 106.593C132.472 106.65 132.449 106.704 132.409 106.744C132.369 106.784 132.315 106.806 132.259 106.806Z" fill="#3F3D56"/>
</g>
<defs>
<clipPath id="clip0_295_119">
<rect width="132.472" height="106.806" fill="white"/>
</clipPath>
</defs>
</svg>
